name C:\Users\tom_v\MusculoskeletalSpecialization\ResultsSprinting\Case_6\motion.mot
datacolumns 32
datarows 14
range 0.27750905 0.34966141
endheader 
time	pelvis_tilt	pelvis_list	pelvis_rotation	pelvis_tx	pelvis_ty	pelvis_tz	hip_flexion_r	hip_adduction_r	hip_rotation_r	knee_angle_r	ankle_angle_r	subtalar_angle_r	mtp_angle_r	hip_flexion_l	hip_adduction_l	hip_rotation_l	knee_angle_l	ankle_angle_l	subtalar_angle_l	mtp_angle_l	lumbar_extension	lumbar_bending	lumbar_rotation	arm_flex_r	arm_add_r	arm_rot_r	elbow_flex_r	arm_flex_l	arm_add_l	arm_rot_l	elbow_flex_l	
          0.27750905	        -14.89242651	          0.93337098	         -1.82689345	          0.92410515	          0.91725231	          0.00641165	         10.60866475	         -0.62754068	         -0.05280620	        -50.66737881	         -6.37324490	         -2.84289838	          9.34423010	         40.69545303	          3.71709751	          0.35388421	        -23.09082720	          3.20832875	         -8.90781498	          0.46145685	         -5.45790042	         -4.08527714	          3.86264317	         20.44117727	          0.51319024	          2.90270226	          0.17678640	         14.94769969	         -1.35312185	          1.46937333	         20.46644878	
          0.28305924	        -14.86658771	          0.87162272	         -1.69895703	          0.94269365	          0.91350821	          0.00636222	         11.44990348	         -0.68842389	         -0.20966542	        -51.74849378	         -5.72094615	         -2.95079204	          8.70424127	         40.43913067	          3.87515419	          0.70877979	        -24.51750880	          3.07199559	         -9.12233291	          0.39444344	         -5.47483586	         -4.15156070	          3.40288809	         20.52427266	          0.60147136	          3.76117844	          0.00000234	         15.58114466	         -1.23229618	          1.01496648	         18.57918265	
          0.28860942	        -14.84220687	          0.80164135	         -1.58050514	          0.96132122	          0.90967920	          0.00630352	         12.37764263	         -0.73917385	         -0.39467212	        -52.77580832	         -5.08162597	         -3.06856362	          8.10596805	         40.06689467	          4.08077712	          1.14207788	        -26.00036213	          4.07303610	         -9.56135394	          0.58286248	         -5.48697580	         -4.20227121	          2.93641683	         20.42467493	          0.63200571	          4.56254651	          0.34987248	         16.01871680	         -1.14172835	          0.37140390	         17.21329513	
          0.29415960	        -14.82546833	          0.75917128	         -1.45758401	          0.97985901	          0.90596921	          0.00620215	         13.41885218	         -0.79958130	         -0.57139678	        -53.78567888	         -4.46510616	         -3.19430976	          7.54672693	         39.66273987	          4.36516832	          1.66503220	        -27.49071778	          5.71010407	        -10.02917541	          1.24279195	         -5.50749469	         -4.27326060	          2.45263398	         20.14718805	          0.59848974	          5.26802434	          1.27028164	         16.28554478	         -1.08696283	         -0.43160212	         16.36580932	
          0.29970978	        -14.81761611	          0.74876567	         -1.32438353	          0.99823771	          0.90257226	          0.00604271	         14.57625113	         -0.85593268	         -0.71835244	        -54.78398595	         -3.87222935	         -3.33191013	          7.02260433	         39.25336703	          4.71538294	          2.21227365	        -28.95543902	          7.40485455	        -10.58075492	          2.22451534	         -5.54661317	         -4.36293179	          1.94992579	         19.69336199	          0.49324963	          5.84300113	          2.79232867	         16.39679764	         -1.06544812	         -1.35921865	         16.02577165	
          0.30525996	        -14.81726805	          0.74229069	         -1.18446081	          1.01646882	          0.89961022	          0.00583476	         15.82931684	         -0.87336838	         -0.84978150	        -55.74900955	         -3.29421569	         -3.47994920	          6.53206811	         38.79801096	          5.07447007	          2.73215330	        -30.30105217	          8.86737501	        -11.16475577	          3.40353533	         -5.60403366	         -4.43368326	          1.43771415	         19.05806195	          0.30896488	          6.25985948	          4.92866070	         16.35224588	         -1.06727685	         -2.37717226	         16.18047362	
          0.31081014	        -14.82380283	          0.73063633	         -1.03952355	          1.03459373	          0.89714228	          0.00558740	         17.15720632	         -0.84632515	         -0.98299983	        -56.66679859	         -2.72890499	         -3.63136274	          6.07479875	         38.25036707	          5.41354679	          3.20833492	        -31.45993993	         10.09628714	        -11.71241242	          4.71553152	         -5.67313232	         -4.47324200	          0.92067242	         18.23571721	          0.04921665	          6.49683949	          7.67254660	         16.15041967	         -1.08574522	         -3.44823002	         16.80767833	
          0.31636032	        -14.83577598	          0.70828508	         -0.88833390	          1.05265038	          0.89518912	          0.00530575	         18.54207548	         -0.77223620	         -1.12368886	        -57.53370183	         -2.17936129	         -3.78409270	          5.64843688	         37.58270355	          5.71673235	          3.64179650	        -32.39581340	         11.11223087	        -12.19176862	          6.11713953	         -5.74919569	         -4.47503077	          0.40024097	         17.22899152	         -0.27479992	          6.54349117	         10.99089308	         15.79705689	         -1.11417106	         -4.53338395	         17.87006573	
          0.32191050	        -14.85211959	          0.67177133	         -0.73028077	          1.07066723	          0.89374557	          0.00499635	         19.97106531	         -0.65106587	         -1.27308292	        -58.35350405	         -1.64409328	         -3.93662674	          5.25121614	         36.78518822	          5.97210015	          4.03347680	        -33.09836317	         11.94024704	        -12.58056005	          7.57615707	         -5.82858988	         -4.43576403	         -0.12132063	         16.05160150	         -0.64570046	          6.40624203	         14.81931449	         15.30533353	         -1.14637572	         -5.59548598	         19.31670213	
          0.32746068	        -14.87186176	          0.61654746	         -0.56456722	          1.08866493	          0.89279071	          0.00466433	         21.43402556	         -0.48314368	         -1.43431735	        -59.13225932	         -1.12106101	         -4.08715128	          4.88059062	         35.85845088	          6.16968887	          4.38668565	        -33.57201521	         12.60196849	        -12.86615908	          9.06857956	         -5.90885385	         -4.35114677	         -0.64174713	         14.72941639	         -1.04311405	          6.11017443	         19.06226102	         14.69402758	         -1.17700061	         -6.60270187	         21.08661659	
          0.33301086	        -14.89405297	          0.53918907	         -0.39059806	          1.10666040	          0.89229474	          0.00431407	         22.92178674	         -0.27022011	         -1.60994584	        -59.87496206	         -0.60777478	         -4.23391124	          4.53349535	         34.80706759	          6.30314731	          4.70642114	        -33.82617962	         13.11385217	        -13.04476549	         10.57603504	         -5.98795375	         -4.21842786	         -1.15903541	         13.29868210	         -1.44662539	          5.69442951	         23.59987939	         13.98510895	         -1.20269045	         -7.53047950	         23.11288846	
          0.33856105	        -14.91745085	          0.43874124	         -0.20846974	          1.12467070	          0.89222477	          0.00395196	         24.42479063	         -0.01574651	         -1.80097622	        -60.58415454	         -0.10067243	         -4.37765823	          4.20420425	         33.63477713	          6.36843349	          4.99457130	        -33.86841556	         13.48748669	        -13.11468383	         12.08650828	         -6.06388764	         -4.03834390	         -1.67150594	         11.80174252	         -1.83821303	          5.20328703	         28.30058569	         13.20138495	         -1.22282524	         -8.36251153	         25.32671619	
          0.34411123	        -14.94103588	          0.31386812	         -0.01884067	          1.14271457	          0.89254758	          0.00358525	         25.93241603	          0.27762268	         -2.00878654	        -61.25852568	          0.40473277	         -4.51823661	          3.88721741	         32.34480751	          6.36108533	          5.25081888	        -33.70464216	         13.73142582	        -13.07486845	         13.59287276	         -6.13377987	         -3.81147376	         -2.17743741	         10.28115044	         -2.20476909	          4.67706657	         33.03645367	         12.36494407	         -1.23828565	         -9.09042884	         27.65988839	
          0.34966141	        -14.96344209	          0.16355118	          0.17696984	          1.16081168	          0.89323244	          0.00322012	         27.43310083	          0.60674274	         -2.23493319	        -61.89390109	          0.89259924	         -4.65438865	          3.58189423	         30.93992332	          6.27820705	          5.47419018	        -33.33986914	         13.84716373	        -12.93138472	         15.09283285	         -6.19491043	         -3.53866964	         -2.67478565	          8.77469595	         -2.53847616	          4.14650750	         37.69617383	         11.49668179	         -1.25059993	         -9.71249397	         30.04702078	
